<svg width="1024" height="1024" viewBox="0 0 1024 1024" fill="none" xmlns="http://www.w3.org/2000/svg">
<g clip-path="url(#clip0_7_3)">
<path d="M0 515.84C0 233.07 225.39 0 508.16 0V0C790.93 0 1024 225.39 1024 508.16V508.16C1024 790.93 798.61 1024 515.84 1024V1024C233.07 1024 0 798.61 0 515.84V515.84Z" fill="#0099C9"/>
<path d="M331.75 172.625C332.496 172.63 333.241 172.635 334.009 172.64C345.575 172.731 356.723 173.295 368 176C368.898 176.21 369.797 176.42 370.722 176.636C386.449 180.394 401.698 185.477 417.001 190.646C428.241 194.44 439.473 198.164 451 201C451.704 201.174 452.409 201.347 453.134 201.526C486.546 209.394 519.665 200.428 550.839 188.421C583.59 175.908 622.156 166.018 657 176C657.714 176.199 658.427 176.397 659.163 176.602C686.498 184.368 709.775 202.362 724.166 226.995C726.672 231.561 728.88 236.245 731 241C731.544 242.201 732.088 243.403 732.649 244.641C747.91 280.432 746.858 320.152 742 358C741.8 359.599 741.601 361.198 741.402 362.797C741.387 362.92 741.372 363.043 741.356 363.166C741.163 364.707 739.717 365.772 738.188 365.5V365.5C726.643 363.95 715.125 364.905 705.438 372C703.502 373.587 701.712 375.299 699.946 377.052C699.224 377.769 697.993 377.265 697.989 376.247V376.247C697.951 367.627 697.894 359.008 697.816 350.389C697.777 345.959 697.745 341.53 697.729 337.1C697.714 332.814 697.679 328.528 697.632 324.242C697.617 322.618 697.609 320.994 697.608 319.37C697.592 304.217 695.809 290.291 684.93 278.816C675.19 269.568 665.399 267.492 652.34 267.727C642.535 268.156 635.089 272.413 628 279C625.659 281.613 625.63 281.646 624.06 283.913C624.021 283.97 623.975 284.025 623.927 284.074C623.698 284.302 623.469 284.531 623.24 284.76C622.776 285.224 621.982 284.903 621.972 284.247V284.247C621.654 268.574 620.56 255.312 609.41 243.285C600.073 234.651 588.756 231.457 576.309 231.688C564.277 232.824 554.354 239.587 546.723 248.645C540.105 257.693 538.654 268.118 538.875 279.063C538.889 280.361 538.889 280.361 538.902 281.686V281.686C538.928 283.984 536.153 285.166 534.552 283.517C533.608 282.544 532.672 281.561 531.75 280.563C521.665 271.165 511.3 267.594 497.637 267.723C487.906 268.465 478.945 273.075 472.063 279.93C462.079 291.678 461.263 304.181 461.341 318.825C461.332 320.689 461.322 322.553 461.309 324.417C461.281 329.439 461.283 334.461 461.291 339.483C461.294 344.745 461.269 350.007 461.247 355.27C461.21 365.218 461.198 375.166 461.195 385.114C461.19 396.446 461.157 407.779 461.122 419.111C461.063 438.273 461.027 457.434 461.009 476.595C461.006 480.637 456.408 482.012 454.629 478.383V478.383C453.971 477.05 453.314 475.718 452.656 474.386C452.143 473.342 452.143 473.342 451.621 472.277C445.17 459.156 438.486 446.2 431.348 433.436C430.372 431.673 429.412 429.9 428.463 428.123C427.945 427.155 427.428 426.188 426.895 425.191C426.429 424.313 425.963 423.435 425.484 422.53C419.381 412.124 409.541 404.823 397.981 401.488C386.416 398.637 376.125 399.852 365.414 405.32V405.32C348.155 416.1 344.09 440.022 351.25 459.07C351.49 459.709 351.74 460.352 352 461C353.488 464.788 354.965 468.581 356.438 472.375C357.069 473.999 357.069 473.999 357.712 475.657C370.714 509.457 381.517 543.967 389.688 579.25C390.072 580.874 390.072 580.874 390.465 582.531C392.578 592.116 391.291 598.899 387.875 608C373.619 647.635 366.018 689.381 361.027 731.102C360.898 732.179 360.898 732.179 360.767 733.278C359.894 740.568 359.035 747.858 358.215 755.154C352.281 807.81 351.675 813.188 341.765 822.568C339.312 824.889 336.494 827.092 333.127 827.352V827.352C329.716 827.615 326.385 826.331 323.5 824.493C304.305 812.267 292.945 784.776 285.641 764.66C278.647 744.645 273.698 724.417 270.313 703.5C270.027 701.771 270.027 701.771 269.735 700.007C265.734 673.809 264.531 647.662 264.736 621.203C264.755 618.229 264.759 615.256 264.763 612.283C264.781 599.074 264.84 585.896 265.769 572.714C266.931 554.063 267.65 534.188 263 516C262.817 515.238 262.635 514.476 262.446 513.691C257.787 494.565 250.03 476.434 242.34 458.367C227.538 423.553 215.426 388.821 211 351C210.859 349.842 210.859 349.842 210.714 348.66C209.732 339.506 209.757 330.321 209.75 321.125C209.749 320.256 209.749 319.388 209.748 318.493C209.764 305.437 210.229 292.803 213 280C213.166 279.187 213.333 278.374 213.504 277.536C220.792 242.593 238.595 209.674 268.916 189.741C276.118 185.207 283.558 181.52 291.563 178.625C292.497 178.285 292.497 178.285 293.451 177.938C306.107 173.678 318.51 172.475 331.75 172.625Z" fill="#FEFEFE"/>
<path d="M579.71 252.212C589.808 251.996 599.134 260.269 601.044 270.187C601.188 270.933 601.303 271.692 601.389 272.463C601.396 273.685 601.403 274.907 601.41 276.166C601.418 276.852 601.426 277.539 601.434 278.246C601.457 280.527 601.459 282.808 601.461 285.09C601.473 286.733 601.487 288.376 601.502 290.019C601.531 293.549 601.552 297.079 601.566 300.609C601.588 306.194 601.634 311.779 601.683 317.365C601.802 331.236 601.892 345.108 601.973 358.98C602.037 369.765 602.109 380.55 602.208 391.335C602.258 396.883 602.29 402.431 602.307 407.979C602.322 411.436 602.354 414.892 602.39 418.348C602.403 419.946 602.41 421.544 602.409 423.142C602.345 429.553 602.316 432.409 603.106 435.437C604.805 441.949 610.075 447.465 616.803 447.298V447.298C619.515 447.231 622.516 446.864 624.626 445.158C625.753 444.245 626.513 443.046 627.574 441.073C629.58 436.153 629.652 431.156 629.876 425.903C629.933 424.806 629.99 423.709 630.05 422.578C630.236 418.96 630.403 415.342 630.571 411.723C630.697 409.193 630.825 406.663 630.954 404.133C631.256 398.149 631.547 392.166 631.832 386.182C632.186 378.768 632.556 371.356 632.926 363.943C633.305 356.351 633.683 348.759 634.049 341.167C634.312 335.718 634.581 330.27 634.857 324.822C634.949 323.017 635.039 321.211 635.127 319.405C635.238 317.169 635.357 314.933 635.48 312.697C635.542 311.516 635.605 310.335 635.669 309.119C636.382 302.408 638.412 297.077 643.438 292.5C643.949 292.117 644.456 291.759 644.96 291.425C654.285 285.242 668.444 288.289 674 298V298C677.948 306.753 677.401 316.112 677.337 325.488C677.337 327.244 677.337 329.001 677.339 330.758C677.341 334.524 677.333 338.289 677.319 342.055C677.298 348.009 677.303 353.963 677.312 359.918C677.335 376.844 677.323 393.769 677.285 410.695C677.264 420.057 677.265 429.418 677.289 438.779C677.302 444.699 677.289 450.618 677.256 456.538C677.242 460.216 677.252 463.894 677.27 467.572C677.273 469.277 677.266 470.983 677.248 472.688C677.225 475.017 677.238 477.342 677.261 479.671V479.671C677.257 482.294 677.256 485.058 678.6 487.31C679.06 488.082 679.611 488.713 680.281 489.31C682.553 491.335 685.518 492.725 688.553 492.5V492.5C692.917 492.178 696.558 488.921 697.945 484.771C700.021 478.559 700.022 470.883 700.787 464.963C701.066 462.807 701.349 460.652 701.634 458.496C702.442 452.376 703.242 446.254 704.039 440.132C704.529 436.366 705.025 432.6 705.524 428.835C705.711 427.418 705.895 426.001 706.077 424.583C709.793 395.686 709.793 395.686 717.5 388.75C721.493 385.955 725.04 384.95 729.077 384.761C733.679 384.546 738.496 385.37 742.077 388.268V388.268C746.72 392.026 749.236 397.896 749.364 403.868C749.483 409.422 748.616 415.221 748.266 420.43C748.188 421.629 748.11 422.827 748.03 424.062C747.818 427.321 747.602 430.579 747.386 433.837C747.156 437.288 746.93 440.74 746.703 444.191C746.421 448.487 746.138 452.783 745.853 457.079C745.302 465.388 744.761 473.696 744.232 482.006C739.029 563.677 739.029 563.677 734 597C733.894 597.746 733.788 598.492 733.678 599.26C728.981 632.081 720.266 666.198 700 693C699.265 694.03 698.531 695.06 697.774 696.121C680.804 719.306 656.571 739.194 629.298 748.894C629.101 748.965 628.896 749 628.687 749V749C627.733 749 626.932 749.726 626.843 750.676C626.793 751.211 626.743 751.75 626.692 752.297C626.001 757.773 624.495 762.966 622.938 768.25C622.628 769.301 622.319 770.353 622 771.436C614.278 797.033 602.718 827.992 580 844V844C571.451 848.58 560.59 845.718 554.724 837.994C553.777 836.746 552.879 835.413 552 834C551.581 833.328 551.162 832.657 550.731 831.965C538.54 810.022 534.544 780.219 534.907 754.965C534.94 752.679 533.347 750.684 531.102 750.254V750.254C525.883 749.088 521.219 747.17 516.375 744.938C515.504 744.538 514.632 744.138 513.734 743.726C499.234 736.947 487.129 728.408 475 718C473.575 716.79 473.575 716.79 472.121 715.555C433.235 681.597 420.673 630.798 409.5 582.563C400.773 544.948 390.755 507.757 376.696 471.731C376.347 470.837 375.998 469.944 375.639 469.024C373.983 464.804 372.299 460.599 370.572 456.409C367.369 448.523 365.829 444.732 365.312 441.899C364.358 436.668 366.736 431.284 370.096 427.163V427.163C373.406 423.102 378.418 420.681 383.624 420.092C387.708 419.631 391.697 420.182 395.961 421.977C408.456 428.248 413.627 440.849 419.688 452.813C420.913 455.21 422.143 457.606 423.375 460C423.681 460.595 423.987 461.19 424.302 461.804C427.629 468.257 431.135 474.61 434.656 480.96C437.229 485.636 439.687 490.344 442.016 495.148C442.507 496.159 442.998 497.169 443.503 498.21C444.436 500.145 445.355 502.086 446.261 504.034C446.424 504.385 446.579 504.716 446.725 505.029C450.225 512.494 459.601 515.932 467.051 512.399V512.399C469.715 511.135 472.117 509.001 473.895 506.647C479.64 499.039 481.156 490.18 481.132 480.347C481.134 479.596 481.136 478.845 481.138 478.072C481.144 475.566 481.143 473.061 481.142 470.555C481.145 468.755 481.149 466.954 481.153 465.153C481.16 461.28 481.166 457.407 481.169 453.534C481.175 447.407 481.191 441.28 481.21 435.153C481.217 433.053 481.223 430.954 481.229 428.854C481.234 427.277 481.234 427.277 481.239 425.669C481.281 411.408 481.314 397.148 481.326 382.887C481.335 373.262 481.357 363.636 481.396 354.011C481.415 348.92 481.428 343.829 481.423 338.739C481.418 333.95 481.432 329.162 481.46 324.373C481.467 322.619 481.467 320.864 481.46 319.11C481.446 315.372 481.435 312.426 481.486 310.032C481.74 298.186 492.171 287.435 504 288.125V288.125C510.03 288.912 513.755 291.444 517.75 295.938C520.998 300.358 522.213 303.991 522.531 309.44C522.598 310.52 522.665 311.601 522.735 312.714C522.799 313.892 522.864 315.069 522.93 316.281C523.005 317.531 523.08 318.781 523.157 320.068C523.319 322.786 523.478 325.504 523.632 328.223C523.876 332.535 524.134 336.846 524.393 341.158C525.238 355.304 526.031 369.453 526.785 383.605C527.081 389.163 527.384 394.721 527.689 400.278C527.94 404.856 528.177 409.435 528.405 414.015C528.55 416.874 528.706 419.732 528.865 422.59C528.97 424.546 529.061 426.503 529.153 428.46C529.22 429.634 529.287 430.807 529.356 432.016C529.408 433.033 529.461 434.049 529.515 435.096C529.798 436.79 530.198 438.34 530.775 439.775C532.642 444.417 537.496 447.342 542.5 447.342V447.342C547.504 447.342 552.408 444.441 554.23 439.781C554.94 437.966 555.324 435.985 555.49 433.78C555.559 432.094 555.61 430.407 555.649 428.72C555.682 427.771 555.714 426.822 555.747 425.845C555.851 422.564 555.929 419.282 556 416C556.028 414.791 556.055 413.581 556.083 412.335C556.25 404.692 556.384 397.049 556.504 389.406C556.59 383.903 556.684 378.4 556.782 372.898C556.797 372.09 556.811 371.282 556.826 370.45C556.856 368.802 556.885 367.153 556.915 365.505C557.112 354.502 557.304 343.5 557.472 332.497C557.586 325.016 557.714 317.536 557.857 310.056C557.932 306.117 558.001 302.178 558.052 298.238C558.101 294.544 558.167 290.851 558.247 287.157C558.285 285.172 558.305 283.187 558.323 281.202C558.387 278.604 558.531 276.095 558.859 273.668C560.324 262.808 568.755 252.447 579.71 252.212V252.212Z" fill="#FDFEFE"/>
<path d="M610 466C610.672 466.517 611.343 467.034 612.035 467.566C614.009 469.006 615.625 469.7 617.938 470.438C624.261 472.733 627.189 476.097 630.496 481.758C632.203 484.303 634.166 486.313 636.312 488.5C649.785 503.12 652.877 521.26 652.213 540.482C651.981 543.228 651.476 545.856 650.863 548.492C650.366 550.625 651.132 552.861 652.875 554.188V554.188C656.408 557.187 657.707 559.477 658.25 564.152C658.754 574.13 655.204 582.518 648.871 590.117C646.25 592.755 643.82 594.269 640.509 595.772C640.175 595.924 639.81 596 639.443 596C639.383 596 639.324 596 639.264 596C637.987 596 636.925 596.98 636.827 598.254V598.254C636.817 598.374 636.799 598.497 636.772 598.614C633.704 611.727 622.927 621.057 612 628C610.439 628.82 609.616 629.253 609.115 629.852C607.58 631.688 607.844 634.593 608.251 636.951V636.951C608.843 640.378 611.612 642.928 614.849 644.201C617.804 645.363 621.088 645.901 624.125 646.625C648.149 652.645 665.63 663.936 679 685C681.003 688.352 682.901 691.749 684.75 695.188C685.193 696.001 685.635 696.815 686.092 697.654C686.489 698.422 686.887 699.189 687.297 699.981V699.981C688.011 701.351 688.796 702.868 688.85 704.412V704.412C688.938 706.907 687.309 709.074 685.551 710.846C685.471 710.926 685.387 711.011 685.297 711.102C684.736 711.669 684.175 712.236 683.597 712.821C682.987 713.416 682.378 714.012 681.75 714.625C681.117 715.247 680.485 715.869 679.833 716.509C668.774 727.202 647.427 746.447 630.301 748.769C628.441 749.021 626.866 750.428 626.691 752.297V752.297C626 757.773 624.495 762.966 622.938 768.25C622.473 769.827 622.473 769.827 622 771.436C614.278 797.033 602.718 827.992 580 844V844C571.451 848.58 560.589 845.718 554.724 837.994C553.777 836.746 552.879 835.413 552 834C551.581 833.328 551.162 832.657 550.73 831.965C538.54 810.022 534.544 780.219 534.907 754.965C534.939 752.679 533.346 750.684 531.102 750.254V750.254C525.883 749.089 521.219 747.17 516.375 744.938C515.503 744.538 514.632 744.138 513.733 743.726C499.213 736.937 487.202 728.344 475 718V718C471.301 714.907 469.439 710.029 470.806 705.405C471.766 702.158 472.966 699.012 474.5 695.813C474.849 695.083 475.198 694.353 475.557 693.601C486.22 672.042 503.054 656.55 525.954 648.628C530.311 647.291 534.793 646.351 539.278 645.556C542.421 644.935 544.599 644.063 546.574 642.514C549.131 640.51 550.959 637.492 550.928 634.243V634.243C550.907 632.096 549.836 630.006 548.234 628.575C546.975 627.451 545.547 626.644 543.812 625.625C533.332 619.162 525.414 611.297 521.18 599.509C521.059 599.174 521 598.824 521 598.468V598.468C521 597.017 520.022 595.744 518.618 595.376C518.542 595.356 518.461 595.335 518.375 595.313C510.38 592.203 506.766 586.416 503 579C500.62 572.941 499.352 565.81 502.016 559.652C503.595 557.032 504.873 555.257 506.898 553.56C508.099 552.553 508.737 550.983 508.344 549.465V549.465C503.831 530.601 505.916 513.398 515.645 496.586C518.669 491.738 522.472 487.725 526.484 483.684V483.684C531.408 478.432 535.773 472.42 542.392 469.59C542.93 469.36 543.479 469.134 544.039 468.91C546.383 467.823 548.455 466.464 550.625 465.063C568.807 454.131 591.961 455.281 610 466Z" fill="#FAB004"/>
<path d="M619.832 750.867C623.508 749.861 626.469 753.411 625.678 757.14C624.639 762.043 623.342 766.842 621.75 771.688C621.44 772.642 621.13 773.596 620.81 774.579C616.192 788.651 610.957 801.911 604 815C603.446 816.072 602.892 817.145 602.32 818.25C598.304 825.63 593.102 832.607 586.804 838.299C579.916 844.525 570.014 849.578 561.938 845V845C557.598 842.009 554.766 838.447 552 834C551.372 832.993 551.372 832.993 550.731 831.965C538.491 809.933 534.302 779.378 534.933 754.196C534.962 753.032 536.02 752.173 537.168 752.367V752.367C538.663 752.619 538.663 752.619 540.188 752.875C541.632 753.119 541.632 753.119 543.106 753.367C544.391 753.576 545.676 753.785 547 754C548.361 754.249 548.361 754.249 549.749 754.503C558.668 756.042 567.417 756.395 576.438 756.375C577.547 756.376 577.547 756.376 578.678 756.377C592.778 756.36 606.265 754.878 619.832 750.867V750.867Z" fill="#FDFEFE"/>
<path d="M496.392 738.176C495.81 736.43 497.427 734.765 499.146 735.425C502.409 736.679 505.506 738.173 508.688 739.812C513.765 742.393 518.872 744.87 524.048 747.229C525.647 747.957 525.798 750.424 524.094 750.851C523.802 750.923 523.522 750.961 523.202 750.98C522.539 751.019 522 750.47 522 749.806V749.806C522 749.322 521.71 748.878 521.264 748.69C515.454 746.244 509.638 743.795 503.664 741.279C503.262 741.11 503 740.723 503 740.286V740.286C503 739.616 502.398 739.1 501.737 739.21C500.801 739.366 499.862 739.523 498.913 739.681C497.812 739.865 496.745 739.236 496.392 738.176V738.176Z" fill="#078EDE"/>
<path d="M688.966 706.054C689.473 705.537 690.333 705.666 690.657 706.313V706.313C690.859 706.719 690.784 707.216 690.463 707.537C690.001 707.999 689.537 708.463 689.062 708.938C688.388 709.614 688.388 709.614 687.699 710.305C686.394 711.607 685.083 712.902 683.77 714.195C682.979 714.976 682.189 715.758 681.375 716.562C680.62 717.306 679.864 718.05 679.086 718.816C676.664 721.351 674.874 723.43 673.594 726.43C673.351 727 672.53 727.059 672.253 726.505V726.505C672.107 726.214 671.775 726.056 671.459 726.135C671.338 726.165 671.218 726.196 671.097 726.226C670.046 726.489 669.274 725.318 669.977 724.494C672.309 721.762 674.874 719.453 677.695 717.047C681.622 713.559 685.291 709.804 688.966 706.054Z" fill="#088CE0"/>
<path d="M469 712.758C469 712.385 469.365 712.118 469.716 712.245C473.666 713.671 476.381 715.922 479.594 718.654C479.864 718.884 480.156 719.09 480.463 719.267C481.728 719.996 482.149 720.227 482.895 720.546C483.559 720.83 484 721.465 484 722.186V722.186C484 722.698 484.221 723.194 484.609 723.529C485.602 724.386 485.85 724.548 487.5 725.625C488.15 726.071 488.799 726.517 489.469 726.977C489.719 727.144 489.969 727.311 490.22 727.479C490.666 727.777 490.824 728.352 490.584 728.832V728.832C490.284 729.432 489.496 729.607 488.966 729.194C474.223 717.702 473.931 717.461 469.184 713.167C469.069 713.062 469 712.914 469 712.758V712.758Z" fill="#F2BA0D"/>
<path d="M589.869 834.177C591.382 832.592 593.739 833.741 592.618 835.623C592.237 836.263 591.77 836.932 591.208 837.712C591.071 837.903 590.898 838.071 590.703 838.203V838.203C588.836 839.468 587.041 837.188 588.581 835.539C589.008 835.083 589.437 834.629 589.869 834.177Z" fill="#0D85BA"/>
<path d="M725.593 634.307C725.806 633.622 726.575 633.287 727.216 633.608V633.608C727.677 633.838 727.94 634.348 727.843 634.853C727.15 638.444 726.124 641.83 724.938 645.312C724.575 646.381 724.213 647.45 723.84 648.551V648.551C723.55 649.395 722.45 649.39 722.33 648.505C721.933 645.555 722.965 642.934 723.938 639.75C724.318 638.487 724.698 637.223 725.09 635.922C725.257 635.385 725.424 634.848 725.593 634.307Z" fill="#0D88BC"/>
<path d="M528.188 745.375C528.647 745.477 529.107 745.579 529.569 745.682C530.405 745.868 531 746.597 531 747.453V747.453C531 748.7 529.778 749.593 528.596 749.199C528.185 749.062 527.774 748.925 527.362 748.787C525.18 748.06 524.889 745.021 527.177 745.26C527.476 745.291 527.809 745.331 528.188 745.375Z" fill="#F1B30E"/>
<path d="M344.057 818.153C345.195 816.109 348.113 816.488 347.374 818.707V818.707C347.309 818.902 347.194 819.15 347.081 819.322C345.947 821.049 344.84 822.415 343.283 823.76C343.102 823.917 342.872 824 342.632 824V824C341.878 824 341.38 823.213 341.719 822.539C342.466 821.057 343.251 819.599 344.057 818.153Z" fill="#098ABE"/>
<path d="M478 722.617C478 721.846 478.781 721.321 479.464 721.676C480.207 722.061 480.895 722.486 481.547 722.946C483.622 724.412 482.096 727.011 480.189 725.333C479.551 724.772 478.92 724.101 478.247 723.298C478.086 723.106 478 722.867 478 722.617V722.617Z" fill="#1092D5"/>
<path d="M496.325 737.974C495.772 736.315 497.329 734.67 498.976 735.259C499.338 735.389 499.65 735.51 499.927 735.632C501.572 736.354 500.995 738.668 499.292 739.236C499.209 739.264 499.126 739.291 499.044 739.319C497.915 739.695 496.701 739.103 496.325 737.974V737.974Z" fill="#0C92D6"/>
<path d="M671.592 722.483C671.85 722.176 672.226 722 672.627 722V722C673.382 722 674 722.612 674 723.368C674 724.364 674 725.365 674 726.382C674 726.761 673.786 727.107 673.447 727.277C673.271 727.364 673.136 727.432 672.999 727.501C672.54 727.73 672 727.404 672 726.891V726.891C672 726.442 671.578 726.105 671.143 726.214C671.012 726.247 670.881 726.28 670.75 726.313C669.831 726.542 669.143 725.499 669.733 724.757C670.342 723.99 670.962 723.233 671.592 722.483Z" fill="#0C91D6"/>
<path d="M469 712.763C469 712.389 469.367 712.122 469.719 712.25C472.986 713.432 475.098 714.896 477.474 717.427C477.795 717.769 477.865 718.27 477.655 718.689V718.689C477.324 719.352 476.455 719.534 475.892 719.051C474.927 718.223 473.963 717.393 473 716.562C472.257 715.924 471.515 715.286 470.75 714.629C470.229 714.144 469.708 713.659 469.175 713.163C469.063 713.059 469 712.916 469 712.763V712.763Z" fill="#E8B916"/>
<path d="M526.382 483.618C526.761 483.239 527.313 483.104 527.822 483.274V483.274C528.819 483.606 529.125 484.875 528.382 485.618C527.468 486.532 526.55 487.45 525.618 488.382C525.239 488.761 524.687 488.896 524.178 488.726V488.726C523.181 488.394 522.875 487.125 523.618 486.382C524.532 485.468 525.45 484.55 526.382 483.618Z" fill="#F9A811"/>
</g>
<defs>
<clipPath id="clip0_7_3">
<rect width="1024" height="1024" fill="white"/>
</clipPath>
</defs>
</svg>
