<svg width="1024" height="1024" viewBox="0 0 1024 1024" fill="none" xmlns="http://www.w3.org/2000/svg">
<g clip-path="url(#clip0_7_3)">
<path d="M0 0C337.92 0 675.84 0 1024 0C1024 337.92 1024 675.84 1024 1024C686.08 1024 348.16 1024 0 1024C0 686.08 0 348.16 0 0Z" fill="#0099C9"/>
<path d="M331.75 172.625C332.496 172.63 333.241 172.635 334.009 172.64C345.575 172.731 356.723 173.295 368 176C368.898 176.21 369.797 176.42 370.722 176.636C386.449 180.394 401.698 185.477 417.001 190.646C428.241 194.44 439.473 198.164 451 201C451.704 201.174 452.409 201.347 453.134 201.526C486.546 209.394 519.665 200.428 550.839 188.421C583.59 175.908 622.156 166.018 657 176C657.714 176.199 658.427 176.397 659.163 176.602C686.498 184.368 709.775 202.362 724.166 226.995C726.672 231.561 728.88 236.245 731 241C731.544 242.201 732.088 243.403 732.649 244.641C747.91 280.432 746.858 320.152 742 358C741.8 359.599 741.601 361.198 741.402 362.797C741.27 363.854 741.137 364.911 741 366C740.072 365.835 739.144 365.67 738.188 365.5C726.643 363.95 715.125 364.905 705.438 372C702.789 374.17 700.415 376.576 698 379C697.996 378.092 697.993 377.183 697.989 376.247C697.951 367.627 697.894 359.008 697.816 350.389C697.777 345.959 697.745 341.53 697.729 337.1C697.714 332.814 697.679 328.528 697.632 324.242C697.617 322.618 697.609 320.994 697.608 319.37C697.592 304.217 695.809 290.291 684.93 278.816C675.19 269.568 665.399 267.492 652.34 267.727C642.535 268.156 635.089 272.413 628 279C625.63 281.646 625.63 281.646 624 284C623.34 284.66 622.68 285.32 622 286C621.991 285.421 621.981 284.843 621.972 284.247C621.654 268.574 620.56 255.312 609.41 243.285C600.073 234.651 588.756 231.457 576.309 231.688C564.277 232.824 554.354 239.587 546.723 248.645C540.105 257.693 538.654 268.118 538.875 279.063C538.889 280.361 538.889 280.361 538.902 281.686C538.926 283.791 538.962 285.895 539 288C536.542 285.554 534.103 283.111 531.75 280.563C521.665 271.165 511.3 267.594 497.637 267.723C487.906 268.465 478.945 273.075 472.063 279.93C462.079 291.678 461.263 304.181 461.341 318.825C461.332 320.689 461.322 322.553 461.309 324.417C461.281 329.439 461.283 334.461 461.291 339.483C461.294 344.745 461.269 350.007 461.247 355.27C461.21 365.218 461.198 375.166 461.195 385.114C461.19 396.446 461.157 407.779 461.122 419.111C461.05 442.408 461.013 465.704 461 489C458.389 485.621 456.512 482.225 454.629 478.383C453.971 477.05 453.314 475.718 452.656 474.386C452.143 473.342 452.143 473.342 451.621 472.277C445.17 459.156 438.486 446.2 431.348 433.436C430.372 431.673 429.412 429.9 428.463 428.123C427.945 427.155 427.428 426.188 426.895 425.191C426.429 424.313 425.963 423.435 425.484 422.53C419.381 412.124 409.541 404.823 397.981 401.488C386.416 398.637 376.125 399.852 365.414 405.32C356.322 410.999 350.37 418.891 347 429C346.085 440.659 347.647 450.155 352 461C353.488 464.788 354.965 468.581 356.438 472.375C357.069 473.999 357.069 473.999 357.712 475.657C370.714 509.457 381.517 543.967 389.688 579.25C390.072 580.874 390.072 580.874 390.465 582.531C392.578 592.116 391.291 598.899 387.875 608C373.619 647.635 366.018 689.381 361.027 731.102C360.898 732.179 360.898 732.179 360.767 733.278C359.894 740.568 359.035 747.858 358.215 755.154C351.606 813.8 351.606 813.8 338 826C334.706 827.647 331.546 827.632 328 827C306.05 816.476 293.498 786.301 285.641 764.66C278.647 744.645 273.698 724.417 270.313 703.5C270.027 701.771 270.027 701.771 269.735 700.007C265.734 673.809 264.531 647.662 264.736 621.203C264.755 618.229 264.759 615.256 264.763 612.283C264.781 599.074 264.84 585.896 265.769 572.714C266.931 554.063 267.65 534.188 263 516C262.817 515.238 262.635 514.476 262.446 513.691C257.787 494.565 250.03 476.434 242.34 458.367C227.538 423.553 215.426 388.821 211 351C210.859 349.842 210.859 349.842 210.714 348.66C209.732 339.506 209.757 330.321 209.75 321.125C209.749 320.256 209.749 319.388 209.748 318.493C209.764 305.437 210.229 292.803 213 280C213.166 279.187 213.333 278.374 213.504 277.536C220.792 242.593 238.595 209.674 268.916 189.741C276.118 185.207 283.558 181.52 291.563 178.625C292.497 178.285 292.497 178.285 293.451 177.938C306.107 173.678 318.51 172.475 331.75 172.625Z" fill="#FEFEFE"/>
<path d="M594 257C598.347 261.235 600.717 266.482 601.389 272.463C601.396 273.685 601.403 274.907 601.41 276.166C601.418 276.852 601.426 277.539 601.434 278.246C601.457 280.527 601.459 282.808 601.461 285.09C601.473 286.733 601.487 288.376 601.502 290.019C601.531 293.549 601.552 297.079 601.566 300.609C601.588 306.194 601.634 311.779 601.683 317.365C601.802 331.236 601.892 345.108 601.973 358.98C602.037 369.765 602.109 380.55 602.208 391.335C602.258 396.883 602.29 402.431 602.307 407.979C602.322 411.436 602.354 414.892 602.39 418.348C602.403 419.946 602.41 421.544 602.409 423.142C602.294 434.703 602.294 434.703 607 445C611.537 447.683 615.855 447.518 621 447C624.753 445.643 625.686 444.585 627.574 441.073C629.58 436.153 629.652 431.156 629.876 425.903C629.933 424.806 629.99 423.709 630.05 422.578C630.236 418.96 630.403 415.342 630.571 411.723C630.697 409.193 630.825 406.663 630.954 404.133C631.256 398.149 631.547 392.166 631.832 386.182C632.186 378.768 632.556 371.356 632.926 363.943C633.305 356.351 633.683 348.759 634.049 341.167C634.312 335.718 634.581 330.27 634.857 324.822C634.949 323.017 635.039 321.211 635.127 319.405C635.238 317.169 635.357 314.933 635.48 312.697C635.542 311.516 635.605 310.335 635.669 309.119C636.382 302.408 638.412 297.077 643.438 292.5C649.03 288.315 654.063 287.074 661 288C666.588 289.759 671.051 292.847 674 298C677.948 306.753 677.401 316.112 677.337 325.488C677.337 327.244 677.337 329.001 677.339 330.758C677.341 334.524 677.333 338.289 677.319 342.055C677.298 348.009 677.303 353.963 677.312 359.918C677.335 376.844 677.323 393.769 677.285 410.695C677.264 420.057 677.265 429.418 677.289 438.779C677.302 444.699 677.289 450.618 677.256 456.538C677.242 460.216 677.252 463.894 677.27 467.572C677.273 469.277 677.266 470.983 677.248 472.688C677.225 475.017 677.238 477.342 677.261 479.671C677.259 480.973 677.257 482.275 677.255 483.617C678.292 488.323 680.058 489.344 684 492C687.891 493.133 691.233 492.367 694.875 490.625C700.115 484.153 699.754 472.958 700.787 464.963C701.066 462.807 701.349 460.652 701.634 458.496C702.442 452.376 703.242 446.254 704.039 440.132C704.529 436.366 705.025 432.6 705.524 428.835C705.711 427.418 705.895 426.001 706.077 424.583C709.793 395.686 709.793 395.686 717.5 388.75C723.595 384.483 728.65 384.388 736 385C741.453 386.717 744.788 390.396 748 395C750.605 402.814 748.809 412.334 748.266 420.43C748.188 421.629 748.11 422.827 748.03 424.062C747.818 427.321 747.602 430.579 747.386 433.837C747.156 437.288 746.93 440.74 746.703 444.191C746.421 448.487 746.138 452.783 745.853 457.079C745.302 465.388 744.761 473.696 744.232 482.006C739.029 563.677 739.029 563.677 734 597C733.894 597.746 733.788 598.492 733.678 599.26C728.981 632.081 720.266 666.198 700 693C699.265 694.03 698.531 695.06 697.774 696.121C680.742 719.391 656.395 739.339 629 749C628.34 749 627.68 749 627 749C626.898 750.088 626.797 751.176 626.692 752.297C626.001 757.773 624.495 762.966 622.938 768.25C622.628 769.301 622.319 770.353 622 771.436C614.278 797.033 602.718 827.992 580 844C575.175 846.585 571.464 847.767 566 847C559.564 844.296 555.623 839.824 552 834C551.581 833.328 551.162 832.657 550.731 831.965C537.896 808.862 534.145 777.047 535 751C533.071 750.631 533.071 750.631 531.102 750.254C525.883 749.088 521.219 747.17 516.375 744.938C515.504 744.538 514.632 744.138 513.734 743.726C499.234 736.947 487.129 728.408 475 718C473.575 716.79 473.575 716.79 472.121 715.555C433.235 681.597 420.673 630.798 409.5 582.563C400.773 544.948 390.755 507.757 376.696 471.731C376.347 470.837 375.998 469.944 375.639 469.024C373.983 464.804 372.299 460.599 370.572 456.409C364.403 441.22 364.403 441.22 366 434C368.266 428.93 371.225 424.956 376 422C382.969 419.419 389.11 419.093 395.961 421.977C408.456 428.248 413.627 440.849 419.688 452.813C420.913 455.21 422.143 457.606 423.375 460C423.681 460.595 423.987 461.19 424.302 461.804C427.629 468.257 431.135 474.61 434.656 480.96C437.229 485.636 439.687 490.344 442.016 495.148C442.507 496.159 442.998 497.169 443.503 498.21C444.436 500.145 445.355 502.086 446.261 504.034C449.216 510.368 449.216 510.368 455 514C461.255 514.718 465.883 513.772 471 510C479.148 501.687 481.16 491.662 481.132 480.347C481.134 479.596 481.136 478.845 481.138 478.072C481.144 475.566 481.143 473.061 481.142 470.555C481.145 468.755 481.149 466.954 481.153 465.153C481.16 461.28 481.166 457.407 481.169 453.534C481.175 447.407 481.191 441.28 481.21 435.153C481.217 433.053 481.223 430.954 481.229 428.854C481.234 427.277 481.234 427.277 481.239 425.669C481.281 411.408 481.314 397.148 481.326 382.887C481.335 373.262 481.357 363.636 481.396 354.011C481.415 348.92 481.428 343.829 481.423 338.739C481.418 333.95 481.432 329.162 481.46 324.373C481.467 322.619 481.467 320.864 481.46 319.11C481.394 301.448 481.394 301.448 487.711 293.977C492.982 289.695 497.073 287.721 504 288.125C510.03 288.912 513.755 291.444 517.75 295.938C520.998 300.358 522.213 303.991 522.531 309.44C522.598 310.52 522.665 311.601 522.735 312.714C522.799 313.892 522.864 315.069 522.93 316.281C523.005 317.531 523.08 318.781 523.157 320.068C523.319 322.786 523.478 325.504 523.632 328.223C523.876 332.535 524.134 336.846 524.393 341.158C525.238 355.304 526.031 369.453 526.785 383.605C527.081 389.163 527.384 394.721 527.689 400.278C527.94 404.856 528.177 409.435 528.405 414.015C528.55 416.874 528.706 419.732 528.865 422.59C528.97 424.546 529.061 426.503 529.153 428.46C529.22 429.634 529.287 430.807 529.356 432.016C529.408 433.033 529.461 434.049 529.515 435.096C530.249 439.49 531.769 442.914 535.125 445.875C540.125 447.831 544.876 447.831 549.875 445.875C553.65 442.544 555.117 438.722 555.49 433.78C555.559 432.094 555.61 430.407 555.649 428.72C555.682 427.771 555.714 426.822 555.747 425.845C555.851 422.564 555.929 419.282 556 416C556.028 414.791 556.055 413.581 556.083 412.335C556.25 404.692 556.384 397.049 556.504 389.406C556.59 383.903 556.684 378.4 556.782 372.898C556.797 372.09 556.811 371.282 556.826 370.45C556.856 368.802 556.885 367.153 556.915 365.505C557.112 354.502 557.304 343.5 557.472 332.497C557.586 325.016 557.714 317.536 557.857 310.056C557.932 306.117 558.001 302.178 558.052 298.238C558.101 294.544 558.167 290.851 558.247 287.157C558.285 285.172 558.305 283.187 558.323 281.202C558.528 272.798 559.585 265.314 564.93 258.563C574.829 250.611 583.218 250.158 594 257Z" fill="#FDFEFE"/>
<path d="M610 466C610.672 466.517 611.343 467.034 612.035 467.566C614.009 469.006 615.625 469.7 617.938 470.438C624.261 472.733 627.189 476.097 630.496 481.758C632.203 484.303 634.166 486.313 636.312 488.5C649.785 503.12 652.877 521.26 652.213 540.482C651.878 544.441 650.978 548.153 650 552C650.949 552.722 651.897 553.444 652.875 554.188C656.408 557.187 657.707 559.477 658.25 564.152C658.754 574.13 655.204 582.518 648.871 590.117C646.117 592.889 643.575 594.419 640 596C639.01 596 638.02 596 637 596C636.938 596.804 636.876 597.609 636.812 598.438C633.801 611.644 622.976 621.026 612 628C608.697 629.735 608.697 629.735 608.062 633.25C608.002 636.857 608.266 638.646 610.352 641.568C614.1 644.825 619.41 645.501 624.125 646.625C648.149 652.645 665.63 663.936 679 685C681.003 688.352 682.901 691.749 684.75 695.188C685.193 696.001 685.635 696.815 686.092 697.654C686.489 698.422 686.887 699.189 687.297 699.981C687.651 700.66 688.005 701.34 688.37 702.04C689.157 704.488 688.948 705.625 688 708C686.808 709.581 686.808 709.581 685.297 711.102C684.736 711.669 684.175 712.236 683.597 712.821C682.987 713.416 682.378 714.012 681.75 714.625C681.117 715.247 680.485 715.869 679.833 716.509C668.052 727.901 644.593 749 627 749C626.898 750.088 626.796 751.176 626.691 752.297C626 757.773 624.495 762.966 622.938 768.25C622.473 769.827 622.473 769.827 622 771.436C614.278 797.033 602.718 827.992 580 844C575.174 846.585 571.463 847.767 566 847C559.564 844.296 555.623 839.824 552 834C551.581 833.328 551.162 832.657 550.73 831.965C537.896 808.862 534.144 777.047 535 751C533.714 750.754 532.427 750.508 531.102 750.254C525.883 749.089 521.219 747.17 516.375 744.938C515.503 744.538 514.632 744.138 513.733 743.726C499.213 736.937 487.202 728.344 475 718C473.003 716.33 471.001 714.665 469 713C470.145 706.878 471.808 701.428 474.5 695.813C474.849 695.083 475.198 694.353 475.557 693.601C486.22 672.042 503.054 656.55 525.954 648.628C530.311 647.291 534.793 646.351 539.278 645.556C544.266 644.571 546.822 642.953 550 639C550.932 635.954 551.362 634.062 550.328 631.027C548.565 628.337 546.578 627.25 543.812 625.625C533.182 619.069 525.188 611.072 521 599C521 598.01 521 597.02 521 596C519.701 595.66 519.701 595.66 518.375 595.313C510.38 592.203 506.766 586.416 503 579C500.62 572.941 499.352 565.81 502.016 559.652C504.079 556.228 505.629 554.247 509 552C508.783 551.163 508.567 550.327 508.344 549.465C503.831 530.601 505.916 513.398 515.645 496.586C518.669 491.738 522.472 487.725 526.484 483.684C529.038 480.96 530.947 478.108 533 475C536.488 472.287 539.951 470.544 544.039 468.91C546.383 467.823 548.455 466.464 550.625 465.063C568.807 454.131 591.961 455.281 610 466Z" fill="#FAB004"/>
<path d="M627 750C625.813 757.454 624.105 764.52 621.75 771.688C621.44 772.642 621.13 773.596 620.81 774.579C616.192 788.651 610.957 801.911 604 815C603.446 816.072 602.892 817.145 602.32 818.25C596.096 829.687 587.023 840.158 575.438 846.375C570.342 847.682 566.528 847.602 561.938 845C557.598 842.009 554.766 838.447 552 834C551.372 832.993 551.372 832.993 550.731 831.965C538.133 809.289 534.064 777.583 535 752C535.716 752.121 536.431 752.242 537.168 752.367C538.663 752.619 538.663 752.619 540.188 752.875C541.632 753.119 541.632 753.119 543.106 753.367C544.391 753.576 545.676 753.785 547 754C548.361 754.249 548.361 754.249 549.749 754.503C558.668 756.042 567.417 756.395 576.438 756.375C577.547 756.376 577.547 756.376 578.678 756.377C592.778 756.36 606.265 754.878 619.832 750.867C623 750 623 750 627 750Z" fill="#FDFEFE"/>
<path d="M495 734C499.864 735.471 504.192 737.495 508.688 739.812C515.052 743.048 521.465 746.12 528 749C524.25 751 524.25 751 522 751C522 750.34 522 749.68 522 749C515.73 746.36 509.46 743.72 503 741C503 740.34 503 739.68 503 739C501.02 739.33 499.04 739.66 497 740C496.34 738.02 495.68 736.04 495 734Z" fill="#078EDE"/>
<path d="M690 705C690.33 705.66 690.66 706.32 691 707C690.361 707.639 689.721 708.279 689.062 708.938C688.388 709.614 688.388 709.614 687.699 710.305C686.394 711.607 685.083 712.902 683.77 714.195C682.979 714.976 682.189 715.758 681.375 716.562C680.62 717.306 679.864 718.05 679.086 718.816C676.264 721.77 674.298 724.105 673 728C672.67 727.34 672.34 726.68 672 726C670.68 726.33 669.36 726.66 668 727C670.838 723.098 674.053 720.153 677.695 717.047C681.99 713.232 685.977 709.097 690 705Z" fill="#088CE0"/>
<path d="M469 712C473.518 713.462 476.413 715.947 480 719C482.216 720.279 482.216 720.279 484 721C484 721.66 484 722.32 484 723C485.559 724.357 485.559 724.357 487.5 725.625C488.15 726.071 488.799 726.517 489.469 726.977C489.974 727.314 490.479 727.652 491 728C490.67 728.66 490.34 729.32 490 730C474.037 717.557 474.037 717.557 469 713C469 712.67 469 712.34 469 712Z" fill="#F2BA0D"/>
<path d="M167 118C167.33 118.66 167.66 119.32 168 120C167.518 120.41 167.036 120.82 166.539 121.242C165.907 121.781 165.276 122.32 164.625 122.875C163.999 123.409 163.372 123.942 162.727 124.492C161.442 125.614 160.206 126.794 159 128C158.01 127.01 157.02 126.02 156 125C159.63 122.69 163.26 120.38 167 118Z" fill="#0B8EC0"/>
<path d="M127 153C127 156.598 126.048 157.959 124.188 161C123.665 161.866 123.143 162.733 122.605 163.625C121.207 165.694 119.837 167.323 118 169C117.34 168.67 116.68 168.34 116 168C117.456 165.873 118.915 163.749 120.375 161.625C120.787 161.022 121.2 160.418 121.625 159.797C123.302 157.362 124.905 155.095 127 153Z" fill="#0985BA"/>
<path d="M594 830C594 833.686 593.148 835.038 591 838C588.139 839.981 585.107 841.45 582 843C585.805 838.44 589.75 834.149 594 830Z" fill="#0D85BA"/>
<path d="M726 633C726.66 633.33 727.32 633.66 728 634C727.311 637.911 726.218 641.555 724.938 645.312C724.575 646.381 724.213 647.45 723.84 648.551C723.424 649.763 723.424 649.763 723 651C721.369 646.937 722.7 643.799 723.938 639.75C724.318 638.487 724.698 637.223 725.09 635.922C725.39 634.958 725.691 633.993 726 633Z" fill="#0D88BC"/>
<path d="M528.188 745.375C529.116 745.581 530.044 745.788 531 746C531 747.32 531 748.64 531 750C528.03 749.01 525.06 748.02 522 747C525 745 525 745 528.188 745.375Z" fill="#F1B30E"/>
<path d="M347 813C347.865 815.421 348.142 816.609 347.25 819.062C345.988 821.019 344.788 822.51 343 824C342.34 824 341.68 824 341 824C342.813 820.223 344.907 816.627 347 813Z" fill="#098ABE"/>
<path d="M478 721C481.817 722.555 484.192 725.036 487 728C482.712 727.524 480.734 726.341 478 723C478 722.34 478 721.68 478 721Z" fill="#1092D5"/>
<path d="M495 734C500.75 735.75 500.75 735.75 503 738C501.02 738.66 499.04 739.32 497 740C496.34 738.02 495.68 736.04 495 734Z" fill="#0C92D6"/>
<path d="M672 722C672.66 722 673.32 722 674 722C674 723.65 674 725.3 674 727C673.01 727.495 673.01 727.495 672 728C672 727.34 672 726.68 672 726C670.68 726.33 669.36 726.66 668 727C669.281 725.293 670.618 723.626 672 722Z" fill="#0C91D6"/>
<path d="M469 712C472.937 713.312 475.227 714.919 478 718C477.67 718.66 477.34 719.32 477 720C475.664 718.858 474.331 717.711 473 716.562C472.257 715.924 471.515 715.286 470.75 714.629C470.173 714.091 469.595 713.554 469 713C469 712.67 469 712.34 469 712Z" fill="#E8B916"/>
<path d="M527 483C527.99 483.33 528.98 483.66 530 484C528.35 485.65 526.7 487.3 525 489C524.01 488.67 523.02 488.34 522 488C523.65 486.35 525.3 484.7 527 483Z" fill="#F9A811"/>
</g>
<defs>
<clipPath id="clip0_7_3">
<rect width="1024" height="1024" fill="white"/>
</clipPath>
</defs>
</svg>
